<svg width="27" height="41" viewBox="0 0 27 41" fill="none" xmlns="http://www.w3.org/2000/svg">
<path d="M26.7098 23.7392C26.7625 25.0618 23.6743 27.6936 23.6743 27.6936L24.6905 27.911L24.6539 28.0376C21.4823 32.613 15.1624 32.6845 15.1624 32.6845H14.9969L14.3878 9.41425H14.5196L20.8599 8.54295L20.8907 7.05356L14.3263 7.03866L14.2999 6.1063C15.0192 5.91827 15.6464 5.46976 16.0637 4.8449C16.481 4.22005 16.6599 3.46179 16.5667 2.71235C16.4735 1.96292 16.1147 1.2738 15.5576 0.77428C15.0005 0.274757 14.2834 -0.000854492 13.5407 -0.000854492C12.798 -0.000854492 12.0809 0.274757 11.5238 0.77428C10.9666 1.2738 10.6078 1.96292 10.5147 2.71235C10.4215 3.46179 10.6004 4.22005 11.0177 4.8449C11.435 5.46976 12.0622 5.91827 12.7815 6.1063L12.761 7.0342L6.27856 7.02377L6.24781 8.48933L12.6731 9.38297H12.7126L12.2206 32.7069H11.8414C11.8414 32.7069 5.52299 32.6324 2.34255 28.06L2.3118 27.9319L3.32802 27.7144C3.32802 27.7144 0.241301 25.0901 0.294016 23.7645C0.332087 22.8024 -0.65045 27.5953 0.794802 29.8994L1.3483 28.7749L1.49473 28.6646C2.25742 29.9758 3.28505 31.1074 4.5097 31.9845C6.46745 33.3473 9.83092 35.0005 10.3039 35.3416C10.9101 35.7884 12.0508 36.2144 12.7126 38.0106C13.3745 39.8068 13.1929 40.9134 13.1929 40.9134C13.1929 40.9134 13.5649 41.1249 13.8065 40.8851C13.8065 40.8851 13.6278 39.7815 14.2882 37.9838C14.9486 36.1861 16.0951 35.7497 16.6984 35.3163C17.1743 34.9752 20.5334 33.319 22.497 31.9577C23.7225 31.0819 24.7512 29.9513 25.5149 28.6408L25.6613 28.7451L26.2104 29.8725C27.6542 27.567 26.6717 22.7771 26.7098 23.7392ZM11.7901 3.10369C11.7898 2.74807 11.8933 2.40036 12.0873 2.10454C12.2813 1.80871 12.5572 1.57806 12.8802 1.44177C13.2031 1.30548 13.5585 1.26967 13.9014 1.33886C14.2444 1.40806 14.5594 1.57916 14.8068 1.83051C15.0541 2.08186 15.2225 2.40218 15.2909 2.75094C15.3592 3.0997 15.3243 3.46123 15.1905 3.7898C15.0568 4.11838 14.8303 4.39923 14.5396 4.59683C14.2489 4.79443 13.9072 4.8999 13.5575 4.8999C13.0892 4.8995 12.6401 4.71018 12.3087 4.37345C11.9774 4.03673 11.7909 3.58009 11.7901 3.10369Z" fill="#546E7A"/>
</svg>
