<svg width="24" height="23" viewBox="0 0 24 23" fill="none" xmlns="http://www.w3.org/2000/svg">
<g clip-path="url(#clip0)">
<path d="M4.81621 5.24988C3.15135 6.78337 2.0842 8.76941 1.74707 10.9269C2.37365 10.7474 3.02502 10.6568 3.69435 10.6568C4.93405 10.6568 6.1326 10.9772 7.17768 11.5754C7.42035 6.86715 8.93784 4.10652 10.1341 2.63947C8.1442 2.98532 6.30116 3.88209 4.81621 5.24988Z" fill="white"/>
<path d="M12.0002 2.67029C11.5959 3.03204 11.0187 3.66531 10.4766 4.57664C9.17536 6.7642 8.71472 9.38449 8.58984 11.5342C9.61753 10.9626 10.7891 10.6568 12 10.6568C13.2114 10.6568 14.3835 10.9629 15.4115 11.535C15.098 5.95817 12.8976 3.46334 12.0002 2.67029Z" fill="white"/>
<path d="M19.1832 5.24989C17.6982 3.88211 15.8552 2.98533 13.8652 2.63953C15.0615 4.10659 16.579 6.86721 16.8217 11.5754C17.8668 10.9773 19.0653 10.6568 20.305 10.6568C20.9743 10.6568 21.6257 10.7474 22.2523 10.927C21.9152 8.76939 20.848 6.78339 19.1832 5.24989Z" fill="white"/>
<path d="M11.2969 0V1.18387C11.5301 1.16986 11.7645 1.16208 12 1.16208C12.2355 1.16213 12.4699 1.16986 12.7031 1.18387V0H11.2969Z" fill="white"/>
<path d="M12 12.1721C11.7622 12.1721 11.5271 12.1931 11.2969 12.2332V23H12.7031V12.2332C12.4729 12.1931 12.2378 12.1721 12 12.1721Z" fill="white"/>
</g>
<defs>
<clipPath id="clip0">
<rect width="24" height="23" fill="white"/>
</clipPath>
</defs>
</svg>
