<svg width="26" height="26" viewBox="0 0 26 26" fill="none" xmlns="http://www.w3.org/2000/svg">
<path d="M20.583 13C18.7912 13 17.333 14.4582 17.333 16.25C17.333 18.0418 18.7912 19.5 20.583 19.5C22.3748 19.5 23.833 18.0418 23.833 16.25C23.833 14.4582 22.3749 13 20.583 13ZM20.583 18.4167C19.3881 18.4167 18.4163 17.4449 18.4163 16.25C18.4163 15.0551 19.3881 14.0833 20.583 14.0833C21.7779 14.0833 22.7497 15.0551 22.7497 16.25C22.7497 17.4449 21.7779 18.4167 20.583 18.4167Z" fill="white"/>
<path d="M20.2388 9.75218C19.4458 9.1195 15.8243 6.5 10.2917 6.5C9.24518 6.5 6.57475 6.60725 4.16868 7.58332H1.625C1.40618 7.58332 1.20793 7.7155 1.1245 7.91807C1.04 8.12063 1.08657 8.3525 1.2415 8.5085L1.77018 9.03718C0.59475 10.0923 0 11.4227 0 13C0 14.8601 0.167934 17.3333 1.625 17.3333H1.85357C1.70843 17.0008 1.625 16.6357 1.625 16.25C1.625 14.7539 2.83725 13.5417 4.33332 13.5417C5.82938 13.5417 7.04163 14.7539 7.04163 16.25C7.04163 16.6357 6.9582 17.0008 6.81307 17.3333H18.1036C17.9584 17.0008 17.875 16.6357 17.875 16.25C17.875 14.7539 19.0872 13.5417 20.5833 13.5417C22.0794 13.5417 23.2916 14.7539 23.2916 16.25C23.2916 16.6357 23.2082 17.0008 23.0631 17.3333H24.375C25.0293 17.3333 26 16.6508 26 15.7083V13.5416C26 12.5147 24.2266 9.83775 20.2388 9.75218ZM16.7917 11.9167H11.375C11.076 11.9167 10.8333 11.674 10.8333 11.375V9.20832C10.8333 8.90932 11.076 8.66663 11.375 8.66663C11.674 8.66663 11.9167 8.90932 11.9167 9.20832V10.8333H16.7917C17.0907 10.8333 17.3334 11.076 17.3334 11.375C17.3334 11.674 17.0907 11.9167 16.7917 11.9167Z" fill="white"/>
<path d="M4.33301 13C2.54119 13 1.08301 14.4582 1.08301 16.25C1.08301 18.0418 2.54119 19.5 4.33301 19.5C6.12482 19.5 7.58301 18.0418 7.58301 16.25C7.58301 14.4582 6.12487 13 4.33301 13ZM4.33301 18.4167C3.13807 18.4167 2.16632 17.4449 2.16632 16.25C2.16632 15.0551 3.13807 14.0833 4.33301 14.0833C5.52794 14.0833 6.49969 15.0551 6.49969 16.25C6.49969 17.4449 5.52794 18.4167 4.33301 18.4167Z" fill="white"/>
</svg>
