<svg width="34" height="33" viewBox="0 0 34 33" fill="none" xmlns="http://www.w3.org/2000/svg">
<g clip-path="url(#clip0)">
<path d="M26.9763 15.5445H9.61952C8.11263 17.3821 7.2117 19.7087 7.2117 22.2399C7.2117 28.1825 12.1752 33 18.2979 33C24.4207 33 29.3841 28.1825 29.3841 22.2399C29.3841 19.7087 28.4831 17.3821 26.9763 15.5445Z" fill="white"/>
<path d="M9.07922 0.465865C5.18615 1.86153 3.14648 5.98344 4.40734 9.78147C4.84708 9.32114 5.4019 8.95144 6.05016 8.71909C7.09885 8.34313 8.20245 8.39418 9.15877 8.78128C9.48277 8.15912 9.96899 7.61533 10.5859 7.21482L13.0202 13.6113H15.1434L12.4542 6.54495C13.1913 6.46007 13.9249 6.56655 14.5879 6.83486C15.0554 5.93729 15.8597 5.20227 16.9084 4.82631C17.5567 4.59389 18.2259 4.52474 18.8684 4.59712C17.2828 0.915554 12.9723 -0.929803 9.07922 0.465865Z" fill="white"/>
<path d="M24.8547 4.67029L21.4521 13.6114H23.5754L25.8504 7.63326L28.8623 9.57569L29.9646 7.96565L24.8547 4.67029Z" fill="white"/>
</g>
<defs>
<clipPath id="clip0">
<rect width="34" height="33" fill="white"/>
</clipPath>
</defs>
</svg>
