<svg width="22" height="22" viewBox="0 0 22 22" fill="none" xmlns="http://www.w3.org/2000/svg">
<g clip-path="url(#clip0)">
<path d="M12.2443 10.9002C12.1713 10.8834 12.1179 10.8133 12.1179 10.7335V8.20279H12.8637C13.7642 8.20279 14.517 7.56145 14.6904 6.71127H12.1179C11.9117 6.71127 11.745 6.5446 11.745 6.3384C11.745 6.13258 11.9117 5.96552 12.1179 5.96552H14.7281V4.84688C14.7281 4.64106 14.5614 4.474 14.3552 4.474H7.64342C7.43722 4.474 7.27054 4.64106 7.27054 4.84688V6.3384C7.27054 7.36641 8.10692 8.20279 9.13494 8.20279H9.8807V11.9319C9.8807 12.5487 10.3826 13.0506 10.9993 13.0506C11.9122 13.0506 12.7668 13.4119 13.4051 14.0689C14.0431 14.7256 14.3802 15.5903 14.3537 16.5042C14.3042 18.2515 12.8425 19.7132 11.0963 19.7624C9.43138 19.8157 7.96298 18.6046 7.68893 16.9595C7.6002 16.4233 7.15272 16.0336 6.62512 16.0336H6.55018C6.22839 16.0336 5.92525 16.1723 5.71866 16.4136C5.51434 16.6523 5.42518 16.9673 5.47404 17.278C5.90918 20.0466 8.25907 22.0001 10.9934 22.0001C11.2465 22.0001 11.5034 21.9833 11.7618 21.9486C14.2594 21.6157 16.1771 19.7173 16.534 17.2254C16.9482 14.3284 15.0641 11.5501 12.2443 10.9002Z" fill="white"/>
<path d="M17.7115 0H4.28792C4.08171 0 3.91504 0.166674 3.91504 0.372879V1.49152H6.52519C6.7314 1.49152 6.89807 1.65819 6.89807 1.8644C6.89807 2.0706 6.7314 2.23728 6.52519 2.23728H3.95272C4.1261 3.08706 4.87933 3.72879 5.77944 3.72879H16.22C17.248 3.72879 18.0844 2.89241 18.0844 1.8644V0.372879C18.0844 0.166674 17.9177 0 17.7115 0Z" fill="white"/>
</g>
<defs>
<clipPath id="clip0">
<rect width="22" height="22" fill="white"/>
</clipPath>
</defs>
</svg>
