<svg width="166" height="49" viewBox="0 0 166 49" fill="none" xmlns="http://www.w3.org/2000/svg">
<g clip-path="url(#clip0)">
<path fill-rule="evenodd" clip-rule="evenodd" d="M45.2075 36.1349C43.4966 37.958 41.5346 39.5276 39.3807 40.7965C37.6312 41.8631 35.7173 42.6329 33.7167 43.0747C32.846 44.0319 32.0136 44.9221 31.2386 45.6496C30.5193 46.3198 29.7553 46.9402 28.9519 47.5066C28.2661 47.9918 27.5157 48.3784 26.7226 48.6553C25.9565 48.9038 25.1552 49.0267 24.3499 49.019C23.7467 49.0294 23.1484 48.91 22.5954 48.6689C22.0424 48.4278 21.5476 48.0706 21.1447 47.6215C20.1881 46.4393 19.7192 44.936 19.8339 43.4193C19.8358 43.0476 19.8646 42.6765 19.92 42.3089C19.9774 41.9069 20.0826 41.3804 20.2357 40.7295C19.8148 40.0499 19.4416 39.399 19.1163 38.8151C18.8047 38.2309 18.5485 37.6188 18.3509 36.9868C18.1559 36.3613 18.0119 35.7211 17.9203 35.0724C17.8205 34.3428 17.7725 33.6071 17.7768 32.8708C17.765 30.8031 18.0882 28.7471 18.7336 26.7828C19.438 24.7631 20.2985 22.8012 21.3073 20.9151C19.7095 20.9151 18.2456 20.7907 16.9062 20.6566C15.6398 20.5407 14.3812 20.3521 13.1365 20.0919C11.9821 19.8578 10.8467 19.5379 9.73994 19.1347C8.58964 18.7097 7.47064 18.2043 6.39123 17.6223C4.64702 16.6952 3.10267 15.4331 1.84657 13.9083C0.694918 12.6094 0.0406661 10.9441 -3.96523e-06 9.20832C-0.0076276 7.78533 0.408743 6.39234 1.19596 5.20715C1.91025 4.07528 2.86797 3.11712 3.9993 2.4025C5.46593 1.50679 7.08401 0.887156 8.7736 0.574212C10.8345 0.17103 12.9311 -0.0214038 15.0309 -0.000118724C16.6458 -0.00161366 18.2593 0.0942821 19.8626 0.287047C21.3629 0.465481 22.8516 0.730756 24.3211 1.08154C25.6202 1.3935 26.8984 1.78674 28.1482 2.25892C29.137 2.63359 30.0964 3.08153 31.0186 3.59902C31.2864 3.79047 31.6022 4.00105 31.9753 4.23079C32.3485 4.46052 32.6929 4.70939 33.0373 4.97742C33.3361 5.2053 33.6205 5.45145 33.8889 5.71447C34.1185 5.94421 34.2333 6.11651 34.2333 6.23137C34.2382 6.26266 34.2357 6.29466 34.2259 6.32478C34.216 6.35489 34.1993 6.38226 34.1769 6.40465C34.1545 6.42705 34.1271 6.44384 34.097 6.45365C34.0669 6.46345 34.035 6.46601 34.0037 6.4611C33.6813 6.40274 33.3787 6.26452 33.1235 6.05907C32.7216 5.79105 32.2528 5.44645 31.717 5.03485C29.6741 3.70535 27.4373 2.70109 25.0866 2.0579C21.9107 1.13544 18.6149 0.693417 15.3084 0.746511C13.2588 0.717457 11.2113 0.887361 9.19458 1.25384C7.6499 1.56282 6.16215 2.10847 4.78386 2.87154C3.68541 3.50489 2.73847 4.3706 2.00922 5.40816C1.21477 6.49319 0.791927 7.80594 0.803685 9.15089C0.872056 10.7381 1.51077 12.2472 2.60242 13.4009C3.91415 14.9185 5.51846 16.1557 7.3193 17.0384C8.37018 17.5895 9.45699 18.0692 10.5723 18.4742C11.6567 18.8535 12.766 19.1573 13.8923 19.3835C15.0897 19.6215 16.3008 19.7845 17.5185 19.8717C18.791 19.9675 20.2357 20.0345 21.8335 20.0727C22.7903 18.7326 23.7471 17.517 24.7039 16.4066C25.6606 15.2962 26.6174 14.2529 27.5742 13.2669C28.5828 12.2767 29.6431 11.3405 30.7507 10.4623C31.8509 9.57206 33.0947 8.71057 34.4438 7.82993C36.0799 6.8057 37.7829 5.84848 39.5338 4.95827C41.1626 4.12965 42.8327 3.38523 44.5377 2.72795C45.94 2.17358 47.3708 1.69429 48.8241 1.29213C49.823 0.999594 50.855 0.835547 51.8953 0.803945C53.1225 0.743994 54.3365 1.07951 55.3588 1.76116C55.739 2.0015 56.0546 2.33128 56.2781 2.72172C56.5016 3.11215 56.6261 3.55138 56.6409 4.00105C56.6029 4.91466 56.3041 5.79824 55.7798 6.54725C55.121 7.55232 54.3328 8.46633 53.4357 9.26575C52.3609 10.2504 51.2162 11.1557 50.0105 11.9747C48.6705 12.9037 47.2777 13.7538 45.839 14.5209C44.2794 15.3632 42.7869 16.0907 41.3804 16.6938C39.9347 17.3197 38.4559 17.8662 36.9505 18.3306C35.4101 18.7996 33.7358 19.2304 31.9466 19.6133C30.1575 19.9962 28.1195 20.3982 25.7754 20.8098C24.3332 22.9717 23.1272 25.2823 22.178 27.7018C21.261 29.9256 20.774 32.3032 20.7428 34.7086C20.7449 35.1662 20.7737 35.6232 20.8289 36.0774C20.9144 36.6218 21.0391 37.1592 21.2021 37.6856C21.7493 36.3659 22.3887 35.0865 23.1156 33.8567C23.8578 32.6217 24.6691 31.4296 25.5458 30.2863C26.3574 29.2373 27.2262 28.2339 28.1482 27.2806C28.9153 26.4747 29.7404 25.7261 30.6167 25.0407C32.6472 23.4246 34.9037 22.1152 37.3141 21.1544C39.405 20.2664 41.645 19.7825 43.9158 19.7281C44.7839 19.6643 45.6558 19.7782 46.4784 20.0629C47.3009 20.3476 48.0567 20.7972 48.6997 21.3841C49.7522 22.514 50.3161 24.0139 50.2688 25.5576C50.2255 27.3444 49.798 29.1008 49.0154 30.7074C48.0575 32.7164 46.7704 34.5508 45.2075 36.1349ZM24.3499 48.2054C25.7 48.1897 27.0214 47.813 28.1769 47.1142C29.7381 46.1275 31.1278 44.8924 32.2911 43.4576C30.9187 43.7535 29.5226 43.9265 28.1195 43.9745C26.8539 43.9927 25.5957 43.7786 24.4073 43.3427C23.1952 42.869 22.0424 42.2554 20.9724 41.5144C20.8576 42.0122 20.7811 42.4046 20.7141 42.711C20.6597 43.0272 20.6309 43.3473 20.628 43.6682C20.5555 44.8934 20.9563 46.0996 21.7474 47.0376C22.0727 47.4069 22.4732 47.7022 22.9221 47.9036C23.371 48.1051 23.8579 48.208 24.3499 48.2054ZM34.3481 42.2036C36.2981 41.487 38.1754 40.5864 39.9548 39.5138C41.8046 38.3527 43.4907 36.9491 44.9683 35.3404C45.6707 34.6034 46.3107 33.8094 46.8818 32.9665C47.4296 32.1401 47.9249 31.2801 48.3648 30.3916C48.7675 29.5767 49.088 28.7238 49.3216 27.8454C49.541 27.0826 49.6568 26.2938 49.666 25.5002C49.7205 24.7838 49.607 24.0646 49.3346 23.3999C49.0622 22.7351 48.6384 22.1432 48.0969 21.6713C46.8341 20.7456 45.287 20.2918 43.7245 20.3886C42.8778 20.409 42.0351 20.5116 41.2082 20.6949C40.1596 20.9232 39.1272 21.2206 38.1178 21.5851C37.028 21.9807 35.9694 22.4574 34.9509 23.0114C33.9372 23.5598 32.9764 24.2006 32.0806 24.9258C30.6167 26.1511 29.3729 27.2806 28.3492 28.3335C27.3647 29.3311 26.4474 30.3927 25.6032 31.5115C24.8195 32.559 24.1036 33.6557 23.4601 34.7948C22.8286 35.9147 22.2162 37.1495 21.6039 38.4801C22.3905 39.8357 23.5187 40.9612 24.8761 41.7442C26.517 42.5451 28.334 42.9172 30.1575 42.8258C30.7698 42.8258 31.2673 42.8258 31.6405 42.7684C32.1626 42.7049 32.6802 42.609 33.1904 42.4812C33.6582 41.8773 34.0773 41.2371 34.4438 40.5668C34.8648 39.8297 35.2666 39.0544 35.6493 38.2503C36.032 37.4463 36.3765 36.6709 36.7018 35.9051C37.0271 35.1394 37.3045 34.4789 37.5342 33.9045C37.6107 33.7131 37.7064 33.4929 37.8212 33.2249C37.936 32.9569 38.0604 32.8229 38.2135 32.8229C38.3666 32.8229 38.4431 32.9569 38.4431 33.2249C38.388 33.7148 38.2657 34.1948 38.0795 34.6512C37.8308 35.3404 37.5055 36.1062 37.1228 36.9676C36.7401 37.8291 36.2808 38.7098 35.812 39.6287C35.3432 40.5476 34.8074 41.3996 34.3481 42.2036ZM26.5791 19.6707C28.2918 19.4793 29.9183 19.2304 31.4682 18.9241C33.0076 18.6212 34.5308 18.241 36.032 17.785C37.5437 17.3255 39.0299 16.7927 40.4906 16.1864C41.9513 15.5802 43.4662 14.8719 45.0353 14.0614C46.4867 13.3254 47.8896 12.4973 49.2355 11.5822C50.4425 10.7657 51.5991 9.87709 52.699 8.92115C53.5809 8.16011 54.3679 7.29558 55.0431 6.34624C55.5501 5.68647 55.8468 4.8893 55.8946 4.05849C55.8992 3.7497 55.8356 3.44372 55.7082 3.16241C55.5808 2.8811 55.3929 2.63142 55.1579 2.43122C54.5589 1.95722 53.8056 1.72193 53.0435 1.77073C51.9703 1.82905 50.9151 2.07191 49.9244 2.48865C48.5823 2.99285 47.2667 3.56472 45.9825 4.20207C44.6239 4.87212 43.3226 5.57089 42.0693 6.31752C40.8159 7.06415 39.7826 7.65763 38.9789 8.17452C36.5517 9.76663 34.2747 11.5769 32.1763 13.5828C30.2006 15.5081 28.3321 17.5405 26.5791 19.6707Z" fill="white"/>
<path fill-rule="evenodd" clip-rule="evenodd" d="M60.7263 37.0157C59.9609 37.858 59.1477 38.6621 58.2961 39.447C57.4695 40.2039 56.5903 40.9013 55.665 41.5337C54.831 42.1093 53.9396 42.5969 53.0052 42.9887C52.2484 43.327 51.4323 43.5124 50.6037 43.5343C50.1788 43.5378 49.7584 43.4469 49.3729 43.2682C48.9874 43.0894 48.6463 42.8272 48.3744 42.5005C47.7709 41.8716 47.4289 41.0367 47.4176 40.1649C47.511 39.0775 47.8373 38.023 48.3744 37.0731C49.0999 35.6723 50.0723 34.4141 51.2447 33.3591C51.9565 32.6742 52.7107 32.0348 53.5027 31.4447C54.3153 30.8366 55.1653 30.2803 56.0477 29.7791C56.8685 29.3126 57.7299 28.9217 58.6214 28.6113C59.3924 28.3352 60.2041 28.1896 61.0229 28.1805C61.3632 28.1605 61.7039 28.2113 62.0234 28.33C62.3429 28.4486 62.6343 28.6324 62.8791 28.8697C63.1106 29.1287 63.2875 29.4317 63.3993 29.7607C63.5111 30.0896 63.5554 30.4377 63.5297 30.7842C63.5309 31.1048 63.5053 31.425 63.4531 31.7414C63.3737 32.0954 63.2714 32.4439 63.147 32.7848C62.9548 33.2913 62.7344 33.7866 62.4868 34.2685C62.1998 34.8428 61.8075 35.532 61.31 36.3265C61.8458 36.3265 62.3529 36.3073 62.8312 36.269C63.3221 36.2265 63.8085 36.1433 64.2855 36.0202C64.806 35.8815 65.3074 35.679 65.7781 35.4171C66.389 35.0669 66.9742 34.6735 67.529 34.2397C67.8106 34.0233 68.076 33.7865 68.3231 33.5314C68.5527 33.2825 68.725 33.1581 68.8398 33.1581C68.9546 33.1581 69.0503 33.2347 69.1268 33.3878C69.0883 33.5753 68.987 33.7442 68.8398 33.8664C68.6337 34.0911 68.4131 34.3022 68.1796 34.4982C67.9308 34.7088 67.6821 34.9098 67.4142 35.1012C67.2115 35.2397 67.0196 35.3933 66.8401 35.5607C66.4489 35.8305 66.0361 36.0674 65.6059 36.269C65.2 36.4689 64.7813 36.6415 64.3525 36.7859C64.0142 36.9025 63.6691 36.9984 63.3192 37.0731C63.1244 37.1191 62.9259 37.1479 62.726 37.1593H61.7692C61.4168 37.1569 61.0663 37.1086 60.7263 37.0157ZM51.0629 42.6728C52.2408 42.5074 53.3607 42.0573 54.3255 41.3614C55.9166 40.366 57.3926 39.1975 58.7267 37.8772C59.3072 37.2806 59.8413 36.6406 60.3245 35.9627C60.7971 35.316 61.2254 34.638 61.6066 33.9334C61.9393 33.3407 62.2179 32.7192 62.439 32.0764C62.6085 31.6189 62.7054 31.1377 62.726 30.6502C62.7331 30.4682 62.698 30.287 62.6232 30.1209C62.5485 29.9548 62.4363 29.8083 62.2954 29.693C62.048 29.4779 61.7333 29.356 61.4056 29.3484C60.135 29.4934 58.9245 29.9686 57.8943 30.7267C55.8607 32.1774 54.0604 33.9302 52.5555 35.9244C51.8284 36.8051 51.2543 37.5421 50.8333 38.126C50.4872 38.5959 50.1678 39.0849 49.8765 39.5906C49.7029 39.8915 49.5679 40.2131 49.4747 40.5478C49.4233 40.7352 49.3944 40.928 49.3886 41.1221C49.378 41.3423 49.4163 41.562 49.5007 41.7655C49.5851 41.9691 49.7134 42.1514 49.8765 42.2995C50.2122 42.5666 50.6349 42.6997 51.0629 42.6728Z" fill="white"/>
<path fill-rule="evenodd" clip-rule="evenodd" d="M88.9798 19.6324C87.0136 21.4906 84.8251 23.0982 82.4642 24.4185C80.3178 25.6318 78.0783 26.672 75.7668 27.5295C72.6796 31.5689 70.4121 34.7597 68.9641 37.1017C67.5162 39.4436 66.7923 40.9114 66.7923 41.5049C66.7821 41.6428 66.802 41.7813 66.8504 41.9108C66.8989 42.0403 66.9749 42.1578 67.0731 42.2551C67.1713 42.3525 67.2894 42.4274 67.4193 42.4747C67.5492 42.522 67.6878 42.5405 67.8256 42.5291C68.4377 42.4984 69.0341 42.3246 69.5669 42.0218C70.3444 41.597 71.0782 41.0968 71.7579 40.5285C72.6021 39.8301 73.404 39.0822 74.1594 38.2886C74.9918 37.4367 75.8146 36.5082 76.6088 35.5222C76.276 35.1634 75.9987 34.7569 75.7859 34.3161C75.5948 33.8257 75.5069 33.301 75.5276 32.775C75.5349 32.2767 75.6321 31.7838 75.8146 31.3201C76.0068 30.8047 76.2744 30.3208 76.6088 29.8842C76.9483 29.4516 77.3554 29.0767 77.8143 28.7739C78.2507 28.4739 78.7678 28.3136 79.2973 28.3144C79.4847 28.3099 79.6704 28.3521 79.8374 28.4374C80.0045 28.5226 80.1476 28.6481 80.2541 28.8026C80.4928 29.144 80.6138 29.554 80.5985 29.9704C80.5739 30.7544 80.357 31.5203 79.967 32.2007C79.3348 33.3276 78.615 34.403 77.8143 35.4169L78.5032 35.618C78.7241 35.6803 78.953 35.7094 79.1825 35.7041C79.783 35.6562 80.3683 35.4903 80.9047 35.2159C81.7754 34.773 82.5495 34.1613 83.1818 33.4164C83.5645 33.0335 83.8133 32.842 83.9281 32.842C83.9669 32.8374 84.0062 32.8417 84.0431 32.8545C84.0801 32.8673 84.1136 32.8883 84.1412 32.9159C84.1689 32.9436 84.1899 32.9771 84.2027 33.0141C84.2155 33.051 84.2197 33.0904 84.2151 33.1292C84.2151 33.2824 83.9281 33.6461 83.354 34.2109C82.7732 34.7861 82.1316 35.2965 81.4405 35.7328C80.7307 36.2149 79.8966 36.4808 79.039 36.4986C78.4134 36.4547 77.7977 36.3193 77.2115 36.0966C75.5823 38.0325 73.8071 39.8406 71.9014 41.5049C70.5994 42.7299 68.9029 43.4495 67.1176 43.5342C66.7844 43.5513 66.4511 43.5017 66.1373 43.3883C65.8235 43.2749 65.5355 43.0999 65.2901 42.8737C65.0445 42.6111 64.8563 42.3 64.7377 41.9605C64.6191 41.6209 64.5726 41.2604 64.6013 40.9018C64.6124 40.3376 64.7125 39.7788 64.8979 39.2458C65.2219 38.3774 65.6322 37.5436 66.1225 36.7571C66.7157 35.7998 67.5098 34.565 68.4953 33.1579C69.4808 31.7508 70.7437 30.047 72.265 28.0655C74.6697 25.1875 76.6534 22.8519 78.2161 21.0587C79.7789 19.2655 81.1694 17.7499 82.3877 16.5119C83.6028 15.2962 84.7605 14.2337 85.8416 13.3435C86.9228 12.4533 88.1761 11.4865 89.5922 10.4718C90.4173 9.83267 91.3169 9.29591 92.2711 8.87328C92.7939 8.63013 93.3531 8.47489 93.9263 8.41382C94.3111 8.42973 94.6775 8.58247 94.9597 8.84457C95.1334 8.99591 95.2703 9.18498 95.3598 9.39733C95.4493 9.60968 95.4892 9.83969 95.4763 10.0698C95.2918 11.6366 94.657 13.1163 93.6489 14.3294C92.2646 16.2416 90.7012 18.0173 88.9798 19.6324ZM77.202 34.9479C78.9114 32.7335 79.7693 31.1701 79.7757 30.2575C79.7757 29.6449 79.5461 29.3482 79.0868 29.3482C78.7001 29.3473 78.3261 29.4867 78.0343 29.7406C77.7033 30.0171 77.4133 30.3395 77.1733 30.6979C76.9265 31.0559 76.7361 31.4498 76.6088 31.8657C76.4788 32.2348 76.4109 32.623 76.4078 33.0143C76.3885 33.3611 76.4339 33.7084 76.5418 34.0386C76.6994 34.3635 76.9169 34.6558 77.1828 34.9L77.202 34.9479ZM76.4557 26.5435C77.6038 26.0458 78.6658 25.5863 79.6609 25.079C80.6479 24.6131 81.6064 24.0889 82.5312 23.5092C83.488 22.9348 84.349 22.3222 85.2388 21.6522C86.2095 20.9157 87.139 20.1264 88.0231 19.2878C88.9798 18.4167 89.8601 17.5265 90.6829 16.6268C91.4387 15.8023 92.1478 14.9363 92.8069 14.0327C93.3387 13.3227 93.8062 12.5667 94.2038 11.7737C94.4923 11.2719 94.6686 10.7134 94.7205 10.1368C94.7205 9.45719 94.4143 9.11259 93.7637 9.11259C93.1131 9.11259 92.0511 9.69649 90.4724 10.8547C88.5378 12.3293 86.715 13.945 85.0188 15.6887C84.483 16.2151 83.9568 16.7895 83.4401 17.4021C82.9235 18.0147 82.359 18.7326 81.7275 19.575L79.4982 22.5232L76.4557 26.5435Z" fill="white"/>
<path fill-rule="evenodd" clip-rule="evenodd" d="M100.107 34.4599C98.033 36.8819 95.7573 39.1234 93.3044 41.1604C91.2856 42.759 89.64 43.563 88.3866 43.563C87.1333 43.563 86.674 42.9313 86.674 41.6486C86.7049 41.1873 86.8016 40.7328 86.961 40.2989C87.2381 39.5486 87.5941 38.8298 88.0231 38.1548C86.9228 39.2651 85.9947 40.1649 85.2484 40.8445C84.6442 41.4283 84.0051 41.9749 83.3349 42.4814C82.8787 42.8286 82.3678 43.0971 81.8232 43.2759C81.3408 43.4128 80.8415 43.4805 80.3402 43.4769C79.7428 43.4826 79.1666 43.2561 78.7328 42.8451C78.4911 42.6375 78.2986 42.3785 78.1695 42.0871C78.0404 41.7956 77.9779 41.4791 77.9865 41.1604C77.9907 40.791 78.0587 40.425 78.1874 40.0788C78.4025 39.5379 78.6684 39.0186 78.9816 38.5281C79.3834 37.8867 79.9383 37.054 80.7612 36.0393C81.584 35.0247 82.579 33.7228 83.8707 32.1243L86.8462 28.5251L90.1567 28.2954L87.0663 31.9233C86.1095 32.9954 85.2771 34.0674 84.4352 35.1587C83.5932 36.2499 82.8469 37.2454 82.1772 38.1548C81.5074 39.0641 80.9812 39.8586 80.6081 40.4999C80.3507 40.867 80.1566 41.2747 80.034 41.706C80.034 42.3187 80.321 42.6633 80.8951 42.6633C81.4989 42.5864 82.0656 42.3296 82.5216 41.9262C83.1818 41.4284 84.0142 40.7393 85.0092 39.8682C86.0043 38.9971 86.7888 38.2888 87.6978 37.3316C88.6067 36.3743 89.5252 35.4171 90.4437 34.4599C91.3622 33.5027 92.2328 32.4689 93.0748 31.4638C93.9168 30.4587 94.6726 29.4824 95.3615 28.5921L98.6719 28.4198L93.7637 34.3833C92.1946 36.2978 90.8934 37.9155 89.9366 39.246C89.2364 40.0125 88.7281 40.9343 88.4536 41.9358C88.4536 42.3952 88.645 42.6154 89.0277 42.6154C89.6807 42.5287 90.3002 42.2748 90.8264 41.8783C91.7614 41.2653 92.6591 40.5973 93.5149 39.8778C94.4717 39.0354 95.5816 38.0686 96.6818 37.0061C97.7821 35.9436 98.8537 34.8045 99.887 33.6654L100.375 33.1772C100.432 33.1265 100.499 33.0876 100.571 33.063C100.643 33.0383 100.72 33.0284 100.796 33.0336C100.911 33.0336 100.968 33.1102 100.968 33.2634C100.941 33.5453 100.812 33.8075 100.605 34.0004L100.107 34.4599Z" fill="white"/>
<path fill-rule="evenodd" clip-rule="evenodd" d="M99.0164 35.13H99.246L101.16 32.2105L103.791 28.5539L106.881 28.3816L104.193 31.9807C103.396 32.9518 102.652 33.9647 101.963 35.0151C102.69 35.0151 103.465 34.9194 104.307 34.8428L108.134 34.4408C108.976 33.3783 109.79 32.3828 110.593 31.4734C111.397 30.5641 112.191 29.4632 112.88 28.5539L116.19 28.3816L111.282 34.3833C109.713 36.2978 108.412 37.9155 107.455 39.246C106.755 40.0125 106.247 40.9344 105.972 41.9358C105.972 42.3953 106.163 42.6154 106.546 42.6154C107.199 42.5287 107.819 42.2748 108.345 41.8784C109.263 41.2638 110.145 40.5958 110.986 39.8778C111.942 39.0354 113.052 38.0686 114.153 37.0061C115.253 35.9436 116.324 34.8045 117.358 33.6654L117.817 33.206C117.875 33.1469 117.946 33.101 118.023 33.0713C118.101 33.0415 118.184 33.0287 118.267 33.0337C118.381 33.0337 118.439 33.1103 118.439 33.2634C118.412 33.5474 118.279 33.8107 118.066 34.0005C117.827 34.2685 117.664 34.4408 117.587 34.5174C115.514 36.919 113.241 39.1413 110.794 41.1605C108.772 42.7622 107.133 43.5631 105.876 43.5631C104.738 43.5631 104.164 42.9313 104.164 41.6486C104.195 41.1874 104.291 40.7329 104.451 40.299C104.72 39.5519 105.063 38.8336 105.475 38.1548C106.112 37.1277 106.881 36.1881 107.761 35.3597C105.095 35.666 102.942 35.8543 101.303 35.9245C100.05 37.8389 98.4327 40.3468 96.5192 43.3621H93.7637L99.1312 35.2448L99.0164 35.13Z" fill="white"/>
<path fill-rule="evenodd" clip-rule="evenodd" d="M120.553 34.0962C117.97 36.9678 116.439 39.0354 115.98 40.3277C115.521 41.6199 115.626 42.4048 116.267 42.6728C116.662 42.7881 117.08 42.7937 117.478 42.6892C117.876 42.5846 118.238 42.3738 118.525 42.0794C119.303 41.4847 120.03 40.825 120.697 40.1075C121.269 39.4852 121.76 38.7938 122.161 38.0495L121.816 37.9921C120.783 37.456 120.41 36.786 120.697 35.9819C120.77 35.6514 120.945 35.3523 121.197 35.1272C121.45 34.902 121.767 34.7623 122.103 34.7279C122.654 34.6669 123.208 34.7988 123.672 35.1013C124.074 35.3884 124.294 36.1159 124.333 37.3029C126.52 36.4811 128.497 35.1831 130.121 33.5027L130.609 33.0145C130.666 32.9638 130.733 32.9249 130.805 32.9003C130.877 32.8756 130.954 32.8656 131.03 32.8709C131.154 32.8709 131.212 32.9475 131.212 33.1007C131.212 33.2538 131.03 33.7133 130.437 34.2685C129.729 34.9288 128.985 35.5487 128.207 36.1255C126.948 36.9763 125.572 37.6405 124.122 38.0973C122.783 40.4617 121.367 42.0315 119.864 42.7877C119.274 43.1468 118.617 43.3828 117.933 43.4815C117.249 43.5802 116.552 43.5395 115.884 43.362C115.317 43.1622 114.829 42.7837 114.494 42.2833C114.16 41.7828 113.996 41.1874 114.028 40.5861C113.932 39.1184 114.618 37.4145 116.085 35.4746C117.917 33.1189 119.895 30.881 122.008 28.774L125.49 28.4294L123.424 30.8416L120.553 34.0962ZM122.725 35.9245C122.802 35.3597 122.63 35.0917 122.218 35.13C121.567 35.3597 121.261 35.7139 121.261 36.1829C121.261 36.6519 121.634 37.0731 122.429 37.4177C122.618 36.9437 122.703 36.4343 122.677 35.9245H122.725Z" fill="white"/>
<path fill-rule="evenodd" clip-rule="evenodd" d="M139.995 37.0155C139.226 37.8661 138.415 38.6776 137.565 39.4468C136.729 40.2051 135.84 40.9024 134.905 41.5336C134.071 42.1091 133.179 42.5967 132.245 42.9885C131.488 43.3258 130.672 43.5112 129.844 43.5341C129.419 43.5377 128.998 43.4467 128.613 43.268C128.227 43.0892 127.886 42.827 127.614 42.5003C127.024 41.8666 126.699 41.0309 126.705 40.1647C126.779 39.0802 127.09 38.0249 127.614 37.0729C128.337 35.6701 129.309 34.4113 130.485 33.3589C131.196 32.674 131.951 32.0346 132.743 31.4445C133.554 30.8343 134.404 30.2779 135.288 29.7789C136.106 29.3143 136.964 28.9235 137.852 28.6111C138.623 28.3367 139.435 28.1912 140.253 28.1804C140.595 28.1589 140.938 28.2091 141.259 28.3278C141.58 28.4465 141.873 28.631 142.119 28.8696C142.349 29.1297 142.524 29.4329 142.636 29.7615C142.748 30.0902 142.793 30.4377 142.77 30.784C142.773 31.1051 142.744 31.4258 142.683 31.7412C142.607 32.1128 142.502 32.4777 142.368 32.8324C142.215 33.2536 141.995 33.7897 141.717 34.3161C141.44 34.8426 141.038 35.5797 140.54 36.3741C141.076 36.3741 141.583 36.3741 142.052 36.3167C142.546 36.2742 143.036 36.1909 143.516 36.0678C144.044 35.9199 144.551 35.7078 145.028 35.4361C145.637 35.0879 146.219 34.6943 146.769 34.2587C147.055 34.0447 147.324 33.8078 147.573 33.5504C147.802 33.3015 147.974 33.177 148.089 33.177C148.204 33.177 148.3 33.2536 148.376 33.4068C148.338 33.5943 148.236 33.7631 148.089 33.8854C147.883 34.1101 147.663 34.3211 147.429 34.5171C147.18 34.7277 146.922 34.9287 146.654 35.1202C146.454 35.2582 146.265 35.4119 146.09 35.5797C145.698 35.8494 145.286 36.0864 144.855 36.288C144.449 36.4862 144.03 36.6588 143.602 36.8049C143.264 36.9215 142.919 37.0173 142.569 37.0921C142.37 37.1376 142.169 37.1665 141.966 37.1782H141.009C140.666 37.1664 140.325 37.1117 139.995 37.0155ZM130.341 42.6726C131.516 42.5084 132.633 42.0581 133.594 41.3613C135.189 40.3707 136.665 39.2017 137.995 37.877C138.582 37.283 139.119 36.6428 139.603 35.9625C140.072 35.3135 140.5 34.6358 140.885 33.9332C141.217 33.3405 141.496 32.719 141.717 32.0762C141.884 31.6185 141.978 31.1371 141.995 30.65C142.004 30.4687 141.97 30.2878 141.897 30.1216C141.824 29.9554 141.713 29.8086 141.574 29.6928C141.326 29.4777 141.011 29.3558 140.684 29.3482C139.413 29.4933 138.203 29.9685 137.172 30.7266C135.135 32.1765 133.332 33.9293 131.824 35.9243C131.097 36.8049 130.532 37.542 130.111 38.1259C129.766 38.5962 129.447 39.0851 129.155 39.5904C128.983 39.8912 128.851 40.2129 128.762 40.5476C128.711 40.735 128.682 40.9278 128.676 41.122C128.666 41.3412 128.703 41.56 128.786 41.7634C128.868 41.9667 128.994 42.1496 129.155 42.2993C129.492 42.564 129.913 42.6968 130.341 42.6726Z" fill="white"/>
<path fill-rule="evenodd" clip-rule="evenodd" d="M146.568 35.13H146.798L148.711 32.2105L151.333 28.5539L154.423 28.3816L151.735 31.9807C150.941 32.9542 150.197 33.9669 149.505 35.0151C150.232 35.0151 151.007 34.9194 151.849 34.8428L155.676 34.4408C156.518 33.3783 157.332 32.3828 158.135 31.4734C158.939 30.5641 159.733 29.4632 160.422 28.5539L163.742 28.3816L158.824 34.3833C157.255 36.2978 155.954 37.9155 154.997 39.246C154.292 40.0102 153.78 40.9326 153.505 41.9358C153.505 42.3953 153.696 42.6154 154.079 42.6154C154.732 42.5287 155.351 42.2748 155.877 41.8784C156.812 41.2653 157.71 40.5973 158.566 39.8778C159.523 39.0354 160.633 38.0686 161.733 37.0061C162.833 35.9436 163.914 34.8045 164.938 33.6654L165.397 33.206C165.458 33.1476 165.53 33.1022 165.609 33.0726C165.688 33.043 165.772 33.0297 165.857 33.0337C165.971 33.0337 166.019 33.1103 166.019 33.2634C165.997 33.5466 165.867 33.8103 165.656 34.0005L165.168 34.5174C163.085 36.9202 160.803 39.1425 158.346 41.1605C156.324 42.7622 154.685 43.5631 153.428 43.5631C152.289 43.5631 151.715 42.9313 151.715 41.6486C151.746 41.1874 151.843 40.7329 152.002 40.299C152.271 39.5519 152.614 38.8336 153.026 38.1548C153.664 37.1277 154.433 36.1881 155.313 35.3597C152.653 35.666 150.5 35.8543 148.855 35.9245C147.601 37.8389 145.984 40.3468 144.071 43.3621H141.315L146.683 35.2448L146.568 35.13Z" fill="white"/>
<path fill-rule="evenodd" clip-rule="evenodd" d="M43.4662 37.5038C43.801 37.5038 44.1168 37.5038 44.4229 37.5038C44.9323 37.45 45.4353 37.3474 45.9251 37.1975C46.4543 37.049 46.9647 36.8403 47.4463 36.5753C48.0357 36.2269 48.6014 35.84 49.1398 35.4171C49.426 35.2026 49.6918 34.9623 49.9339 34.6992C50.1636 34.4599 50.3358 34.3354 50.4506 34.3354C50.5654 34.3354 50.7376 34.412 50.7376 34.5652C50.6916 34.7497 50.5917 34.9163 50.4506 35.0438C50.2455 35.2662 50.0283 35.4771 49.8 35.6756C49.5512 35.8861 49.2929 36.0872 49.025 36.2786C48.8224 36.4171 48.6305 36.5707 48.451 36.7381C48.0596 37.0022 47.6504 37.2389 47.2263 37.4464C46.8164 37.6447 46.3946 37.8173 45.9633 37.9633C45.6282 38.0797 45.2864 38.1756 44.9396 38.2505C44.7414 38.296 44.5398 38.3249 44.3368 38.3366H43.3322C43.1272 38.3357 42.9226 38.3197 42.7199 38.2888L42.8634 38.1356L43.4662 37.5038Z" fill="white"/>
</g>
<defs>
<clipPath id="clip0">
<rect width="166" height="49" fill="white"/>
</clipPath>
</defs>
</svg>
