<svg width="20" height="20" viewBox="0 0 20 20" fill="none" xmlns="http://www.w3.org/2000/svg">
<g clip-path="url(#clip0)">
<path d="M5.22247 6.01227L7.96677 8.75656L8.79517 7.92801L6.05087 5.18372V2.98248L1.91467 0.000305176L0.0390625 1.87592L3.02124 6.01227H5.22247Z" fill="white"/>
<path d="M14.037 1.02858C12.2487 2.81798 13.3252 4.92751 13.3349 5.04469L5.0842 13.2974C4.96701 13.2884 2.86237 12.2041 1.06809 13.9984C0.016451 15.0506 -0.259275 16.6585 0.380831 18.0002L2.72565 15.656L4.38275 17.3131L2.03854 19.6573C3.35065 20.2847 4.96304 20.0477 6.0397 18.97C7.82895 17.1818 6.75152 15.0717 6.74176 14.9545L14.9925 6.70226C15.1097 6.71385 17.2216 7.78868 19.0086 6.0002C20.0608 4.94856 20.3366 3.34074 19.6959 1.99889L17.3516 4.34309L15.6945 2.68614L18.0387 0.341324C16.7349 -0.279098 15.1231 -0.055862 14.037 1.02858Z" fill="white"/>
<path d="M10.4482 12.8942L12.9324 10.41L13.7644 11.2421L11.2802 13.7262L10.4482 12.8942Z" fill="white"/>
<path d="M17.5534 19.9995L12.1123 14.5584L14.5966 12.0743L20.0376 17.5153L17.5534 19.9995Z" fill="white"/>
</g>
<defs>
<clipPath id="clip0">
<rect width="20" height="20" fill="white"/>
</clipPath>
</defs>
</svg>
