<svg width="34" height="33" viewBox="0 0 34 33" fill="none" xmlns="http://www.w3.org/2000/svg">
<g clip-path="url(#clip0)">
<path d="M17.4232 12.3484L6.71684 17.4379C6.70542 17.7565 6.69891 18.077 6.69891 18.3994C6.69891 19.5846 6.78332 21.0451 7.04071 22.7288L18.0571 17.492C17.9973 15.7075 17.766 13.982 17.4232 12.3484Z" fill="white"/>
<path d="M12.3851 0C11.7562 1.00167 10.8412 2.57858 9.93382 4.56831C8.74667 7.17157 7.37685 10.9338 6.88617 15.2044L16.9574 10.4169C15.6565 5.63101 13.5376 1.84059 12.3851 0Z" fill="white"/>
<path d="M24.2257 31.0664C25.5576 27.8781 26.9532 23.3553 26.9532 18.3995C26.9532 10.0101 23.007 2.7815 21.2657 0.000610352C20.4206 1.34787 19.0576 3.73696 17.8843 6.77953C19.0467 9.97312 20.0649 14.0195 20.0649 18.3995C20.0649 22.5169 19.1994 26.7698 17.4899 31.0664H15.3453C16.5638 28.1488 17.8349 24.1137 18.0422 19.652L7.40628 24.708C7.82172 26.6242 8.46121 28.7622 9.42556 31.0664H2.95593V33H31.0438V31.0664H24.2257Z" fill="white"/>
</g>
<defs>
<clipPath id="clip0">
<rect width="34" height="33" fill="white"/>
</clipPath>
</defs>
</svg>
