<svg width="26" height="26" viewBox="0 0 26 26" fill="none" xmlns="http://www.w3.org/2000/svg">
<path d="M2.1676 13.5416C3.3642 13.5416 4.33423 12.5716 4.33423 11.375C4.33423 10.1784 3.3642 9.20837 2.1676 9.20837C0.971009 9.20837 0.000976562 10.1784 0.000976562 11.375C0.000976562 12.5716 0.971009 13.5416 2.1676 13.5416Z" fill="white"/>
<path d="M17.3337 10.2917C17.0347 10.2917 16.792 10.5344 16.792 10.8334C16.792 11.1324 17.0347 11.3751 17.3337 11.3751C21.7774 11.3751 24.9168 15.4397 24.9168 16.25C24.9168 16.549 25.1595 16.7916 25.4585 16.7916C25.7574 16.7916 26.0001 16.549 26.0001 16.25C26.0001 14.5708 22.1565 10.2917 17.3337 10.2917Z" fill="white"/>
<path d="M25.4587 15.7082H20.5709C19.8472 15.7082 19.2221 15.2424 19.0131 14.5502L17.8171 10.5907L16.7338 8.42411C16.6428 8.24105 16.4554 8.12512 16.2506 8.12512H14.6257C14.4816 8.12512 14.344 8.18255 14.2422 8.2833L12.2348 10.2917H3.79265C3.49365 10.2917 3.25098 10.5344 3.25098 10.8334V11.9167C3.25098 12.181 3.44272 12.4074 3.70378 12.4508C5.68841 12.7823 9.06721 13.5958 9.84288 14.3942L9.87756 14.4614C10.9013 16.4655 12.1763 18.9582 14.6257 18.9582H22.2088C24.37 18.9582 26.0004 17.7937 26.0004 16.25C26.0004 15.9509 25.7577 15.7082 25.4587 15.7082Z" fill="white"/>
<path d="M3.21048 9.57349L2.12714 7.40686C1.99933 7.15118 1.69165 7.03962 1.42734 7.15443L0.327806 7.62785C0.0699958 7.73942 -0.061118 8.02978 0.0277469 8.29627L0.569417 9.92123C0.665848 10.205 0.973473 10.3578 1.25515 10.2635C1.47508 10.191 1.61264 9.99054 1.62132 9.77173L2.10663 9.79123L2.24094 10.0588C2.33625 10.2484 2.528 10.3578 2.72518 10.3578C2.80643 10.3578 2.88874 10.3394 2.96786 10.3004C3.23536 10.166 3.34368 9.84105 3.21048 9.57349Z" fill="white"/>
<path d="M2.95162 12.5157C2.68513 12.3847 2.35907 12.4908 2.22471 12.7584L2.15646 12.8927C2.10664 12.6447 1.88778 12.4583 1.62565 12.4583C1.32666 12.4583 1.08398 12.701 1.08398 13V14.0833C1.08398 14.3823 1.32666 14.6249 1.62565 14.6249H2.16732C2.37207 14.6249 2.5595 14.509 2.65156 14.3259L3.19323 13.2427C3.32643 12.9751 3.21918 12.649 2.95162 12.5157Z" fill="white"/>
<path d="M15.7087 4.87518C15.4097 4.87518 15.167 5.11786 15.167 5.41685V5.95852C15.167 6.25752 15.4097 6.50019 15.7087 6.50019C16.0077 6.50019 16.2503 6.25752 16.2503 5.95852V5.41685C16.2503 5.11786 16.0077 4.87518 15.7087 4.87518Z" fill="white"/>
<path d="M25.4584 5.9585H15.7087C15.4097 5.9585 15.167 6.20117 15.167 6.50017C15.167 6.79916 15.4097 7.04184 15.7087 7.04184H25.4584C25.7574 7.04184 26.0001 6.79916 26.0001 6.50017C26.0001 6.20117 25.7574 5.9585 25.4584 5.9585Z" fill="white"/>
<path d="M15.7084 5.9585H5.95866C5.65967 5.9585 5.41699 6.20117 5.41699 6.50017C5.41699 6.79916 5.65967 7.04184 5.95866 7.04184H15.7084C16.0074 7.04184 16.2501 6.79916 16.2501 6.50017C16.2501 6.20117 16.0074 5.9585 15.7084 5.9585Z" fill="white"/>
<path d="M17.8757 17.8749C17.5767 17.8749 17.334 18.1176 17.334 18.4165V20.5832C17.334 20.8822 17.5767 21.1248 17.8757 21.1248C18.1746 21.1248 18.4173 20.8822 18.4173 20.5832V18.4165C18.4173 18.1176 18.1746 17.8749 17.8757 17.8749Z" fill="white"/>
<path d="M22.2087 17.8749C21.9097 17.8749 21.667 18.1176 21.667 18.4165V20.5832C21.667 20.8822 21.9097 21.1248 22.2087 21.1248C22.5077 21.1248 22.7503 20.8822 22.7503 20.5832V18.4165C22.7503 18.1176 22.5077 17.8749 22.2087 17.8749Z" fill="white"/>
<path d="M25.7227 19.0276C25.4616 18.8813 25.1312 18.9745 24.985 19.2356C24.7282 19.6938 23.6818 19.9798 23.2918 20.0415H12.4587C12.1597 20.0415 11.917 20.2842 11.917 20.5832C11.917 20.8822 12.1597 21.1249 12.4587 21.1249L23.3665 21.1194C23.5669 21.0913 25.3424 20.815 25.9306 19.7642C26.0769 19.5031 25.9838 19.1738 25.7227 19.0276Z" fill="white"/>
</svg>
