<svg width="25" height="25" viewBox="0 0 25 25" fill="none" xmlns="http://www.w3.org/2000/svg">
<path d="M20.4772 16.1908L20.2656 15.825C19.165 13.9225 17.1177 12.7407 14.9229 12.7407H0C0.129248 16.837 3.50132 20.1296 7.62847 20.1296H24.9995V16.1908H20.4772V16.1908ZM9.23701 16.1907H7.64956V14.7256H9.23701V16.1907ZM12.3138 16.1907H10.7263V14.7256H12.3138V16.1907ZM15.3905 16.1907H13.8031V14.7256H15.3905V16.1907Z" fill="white"/>
<path d="M24.9997 6.33562V4.87048H24.6913H23.4761H20.5133L19.265 7.23494H12.1739C10.7739 7.23494 9.59536 8.19993 9.26758 9.49958H8.26533C7.04751 9.49958 5.9978 10.2301 5.5293 11.2755H14.9225C17.4951 11.2755 19.9035 12.587 21.3079 14.7256H23.9225V10.9647H24.9997V9.49958H23.9225H22.8478H22.2474L23.9178 6.33557H24.9997V6.33562Z" fill="white"/>
</svg>
