<svg width="33" height="33" viewBox="0 0 33 33" fill="none" xmlns="http://www.w3.org/2000/svg">
<path d="M25.2806 17.4668V15.5332H27.8842C27.4185 10.0029 22.9973 5.58164 17.467 5.11597V7.71962H15.5334V5.11597C10.0031 5.58164 5.58176 10.0029 5.11615 15.5332H7.71973V17.4668H5.11615C5.58182 22.9971 10.0031 27.4184 15.5334 27.884V25.2804H17.467V27.884C22.9973 27.4184 27.4185 22.9971 27.8842 17.4668H25.2806ZM18.8809 18.8807L10.5245 22.4758L14.1196 14.1194L22.4759 10.5244L18.8809 18.8807Z" fill="white"/>
<path d="M15.1798 16.5471L14.2185 18.7815L16.4529 17.8202L15.1798 16.5471Z" fill="white"/>
<path d="M16.5472 15.1798L17.8203 16.4529L18.7815 14.2186L16.5472 15.1798Z" fill="white"/>
<path d="M16.5 0C7.3873 0 0 7.3873 0 16.5C0 25.6127 7.3873 33 16.5 33C25.6127 33 33 25.6127 33 16.5C33 7.3873 25.6127 0 16.5 0ZM16.5 29.8589C9.13385 29.8589 3.14106 23.8662 3.14106 16.5C3.14106 9.13385 9.13385 3.14106 16.5 3.14106C23.8662 3.14106 29.8589 9.13385 29.8589 16.5C29.8589 23.8662 23.8662 29.8589 16.5 29.8589Z" fill="white"/>
</svg>
