<svg width="36" height="36" viewBox="0 0 36 36" fill="none" xmlns="http://www.w3.org/2000/svg">
<g clip-path="url(#clip0)">
<path d="M19.2641 24.457C22.2436 24.457 24.659 22.0416 24.659 19.062C24.659 16.0825 22.2436 13.6671 19.2641 13.6671C16.2845 13.6671 13.8691 16.0825 13.8691 19.062C13.8691 22.0416 16.2845 24.457 19.2641 24.457Z" fill="#00A9C0"/>
<path d="M14.6922 3.67847C12.2018 7.56247 13.0022 11.0546 14.164 13.2413C15.5272 12.0456 17.3122 11.3195 19.2637 11.3195C21.0863 11.3195 22.7634 11.9529 24.0876 13.0106C26.3703 10.963 29.7349 11.0434 30.9809 7.65156C32.7508 2.83366 19.9378 -4.50226 14.6922 3.67847Z" fill="#00A9C0"/>
<path d="M34.8721 22.7951C32.7549 18.6987 29.3331 17.6447 26.8588 17.5564C26.9552 18.0436 27.0063 18.5471 27.0063 19.0622C27.0063 22.3334 24.9671 25.1372 22.0932 26.2695C22.7228 29.2687 20.9735 32.1411 23.2869 34.9149C26.5745 38.8566 39.3341 31.4283 34.8721 22.7951Z" fill="#00A9C0"/>
<path d="M11.5205 19.0623C11.5205 18.6705 11.55 18.2854 11.6064 17.9091C8.6944 16.9546 7.0815 14.0036 3.52263 14.6202C-1.53475 15.4965 -1.48138 30.2608 8.22619 30.7131C12.8323 30.9278 15.456 28.4916 16.7695 26.3929C13.7199 25.3527 11.5205 22.4596 11.5205 19.0623Z" fill="#00A9C0"/>
</g>
<defs>
<clipPath id="clip0">
<rect width="36" height="36" fill="white"/>
</clipPath>
</defs>
</svg>
