<svg width="22" height="22" viewBox="0 0 22 22" fill="none" xmlns="http://www.w3.org/2000/svg">
<g clip-path="url(#clip0)">
<path d="M11.1142 5.93635L10.2819 0.3905C10.2489 0.165 10.0555 0 9.82907 0C9.82448 0 9.81898 0 9.81348 0C9.58063 0.00734766 9.39088 0.187902 9.37257 0.419848L8.97107 5.2351C8.94632 5.5321 8.41923 5.5321 8.39448 5.2351L7.99392 0.419848C7.97373 0.182402 7.77573 0 7.53742 0C7.29907 0 7.10017 0.182402 7.08092 0.419848L6.67942 5.2351C6.65467 5.5321 6.12757 5.5321 6.10282 5.2351L5.70222 0.419848C5.68297 0.188848 5.49322 0.00825 5.26038 0C5.25488 0 5.25028 0 5.24572 0C5.01932 0 4.82588 0.165 4.79288 0.3905L3.96147 5.93635C3.71672 7.5616 4.59857 9.11625 6.08538 9.76435L5.37772 19.6827C5.33557 20.2794 5.54457 20.8725 5.95247 21.3107C6.35947 21.7488 6.93607 22 7.53557 22H7.53923C8.13782 22 8.71532 21.7488 9.12323 21.3107C9.53113 20.8725 9.74013 20.2794 9.69798 19.6827L8.99032 9.76435C10.4772 9.11625 11.359 7.5616 11.1142 5.93635Z" fill="white"/>
<path d="M17.8851 0.084357C17.7641 -0.00179531 17.6082 -0.0219906 17.468 0.026607C17.4286 0.040357 13.4961 1.48501 13.4961 5.95836C13.4961 9.17861 14.5438 10.8048 15.1332 11.4648L14.5466 12.0514C14.4714 12.1266 14.4247 12.2247 14.4146 12.3301L13.6895 19.5818C13.6271 20.1987 13.8297 20.8166 14.2459 21.2767C14.6621 21.7369 15.2588 22 15.8785 22C17.0913 22 18.0785 21.0128 18.0785 19.8V0.458357C18.0794 0.308912 18.007 0.170509 17.8851 0.084357Z" fill="white"/>
</g>
<defs>
<clipPath id="clip0">
<rect width="22" height="22" fill="white"/>
</clipPath>
</defs>
</svg>
